<svg width="1716" height="416" viewBox="0 0 1716 416" fill="none" xmlns="http://www.w3.org/2000/svg">
<path d="M24 118C24 106.954 32.9543 98 44 98H1672C1683.05 98 1692 106.954 1692 118V266C1692 277.046 1683.05 286 1672 286H44C32.9543 286 24 277.046 24 266V118Z" fill="#262630"/>
<path d="M763.076 204.664L765.182 202.545L767.301 204.664L765.182 206.77L763.076 204.664ZM758.428 204.664L760.533 202.545L762.652 204.664L760.533 206.77L758.428 204.664ZM760.725 208.246L762.83 206.127L764.949 208.246L762.83 210.352L760.725 208.246ZM763.91 201H761.928C759.722 201 757.817 200.74 756.213 200.221C754.618 199.701 753.387 198.913 752.521 197.855C751.665 196.789 751.236 195.449 751.236 193.836C751.236 193.079 751.332 192.355 751.523 191.662C751.724 190.96 751.956 190.295 752.221 189.666L755.311 190.828C755.165 191.229 755.028 191.68 754.9 192.182C754.782 192.683 754.723 193.166 754.723 193.631C754.732 194.898 755.288 195.85 756.391 196.488C757.493 197.126 759.294 197.445 761.791 197.445H763.842C765.592 197.445 767 197.304 768.066 197.021C769.133 196.739 769.862 196.361 770.254 195.887C770.354 195.759 770.436 195.59 770.5 195.381C770.573 195.171 770.609 194.893 770.609 194.547C770.609 194.109 770.596 193.672 770.568 193.234C770.541 192.788 770.514 192.355 770.486 191.936L773.768 191.525L774.027 195.49C774.073 196.201 774.242 196.707 774.533 197.008C774.834 197.299 775.34 197.445 776.051 197.445H776.393V201H776.051C774.191 201 772.797 200.285 771.867 198.854C770.983 199.601 769.862 200.148 768.504 200.494C767.155 200.831 765.624 201 763.91 201ZM783.734 189.707C783.971 190.482 784.158 191.325 784.295 192.236C784.441 193.148 784.514 193.991 784.514 194.766C784.514 196.926 783.953 198.507 782.832 199.51C781.711 200.503 780.061 201 777.883 201H775.846V197.445H777.883C778.749 197.445 779.41 197.391 779.865 197.281C780.33 197.163 780.649 196.917 780.822 196.543C780.995 196.169 781.082 195.59 781.082 194.807C781.082 194.223 781.018 193.526 780.891 192.715C780.763 191.895 780.622 191.161 780.467 190.514L783.734 189.707ZM779.496 205.143L781.725 202.928L783.953 205.156L781.725 207.385L779.496 205.143ZM774.889 205.143L777.117 202.928L779.346 205.143L777.117 207.385L774.889 205.143ZM794.494 200.59C794.202 202.458 793.387 204.099 792.047 205.512C790.707 206.934 788.784 207.927 786.277 208.492L784.787 205.471C787.02 204.924 788.656 204.117 789.695 203.051C790.743 201.984 791.268 200.654 791.268 199.059C791.268 198.257 791.149 197.382 790.912 196.434C790.684 195.486 790.388 194.583 790.023 193.727L793.305 192.551L794.33 195.832C794.54 196.461 794.781 196.889 795.055 197.117C795.337 197.336 795.738 197.445 796.258 197.445H796.791V201H796.408C796.007 201 795.643 200.959 795.314 200.877C794.995 200.795 794.722 200.699 794.494 200.59ZM804.133 189.707C804.37 190.482 804.557 191.325 804.693 192.236C804.839 193.148 804.912 193.991 804.912 194.766C804.912 196.926 804.352 198.507 803.23 199.51C802.109 200.503 800.46 201 798.281 201H796.244V197.445H798.281C799.147 197.445 799.808 197.391 800.264 197.281C800.729 197.163 801.048 196.917 801.221 196.543C801.394 196.169 801.48 195.59 801.48 194.807C801.48 194.223 801.417 193.526 801.289 192.715C801.161 191.895 801.02 191.161 800.865 190.514L804.133 189.707ZM800.824 185.961L803.053 183.746L805.281 185.975L803.053 188.203L800.824 185.961ZM796.217 185.961L798.445 183.746L800.674 185.961L798.445 188.203L796.217 185.961ZM820.512 190.855L822.891 188.49L825.27 190.855L822.891 193.234L820.512 190.855ZM827.334 192.77L830.766 191.566C831.212 192.697 831.563 193.859 831.818 195.053C832.083 196.247 832.215 197.409 832.215 198.539C832.215 200.398 831.814 201.966 831.012 203.242C830.219 204.527 829.134 205.498 827.758 206.154C826.382 206.82 824.823 207.152 823.082 207.152C820.266 207.152 818.051 206.423 816.438 204.965C814.824 203.507 814.018 201.428 814.018 198.73C814.018 197.646 814.154 196.543 814.428 195.422C814.71 194.301 815.066 193.212 815.494 192.154L818.611 193.412C818.292 194.278 818.019 195.167 817.791 196.078C817.572 196.98 817.463 197.842 817.463 198.662C817.463 200.357 817.896 201.606 818.762 202.408C819.637 203.219 821.063 203.625 823.041 203.625C824.946 203.625 826.372 203.183 827.32 202.299C828.277 201.415 828.76 200.025 828.77 198.129C828.77 197.227 828.628 196.32 828.346 195.408C828.072 194.488 827.735 193.608 827.334 192.77ZM834.498 182.051H837.902V200.986H834.498V182.051ZM846.953 200.836C846.461 200.945 845.982 201 845.518 201C843.859 201 842.555 200.622 841.607 199.865C840.66 199.1 840.186 197.947 840.186 196.406C840.186 195.686 840.286 194.962 840.486 194.232C840.687 193.503 840.992 192.833 841.402 192.223C841.822 191.603 842.346 191.106 842.975 190.732C843.613 190.359 844.369 190.172 845.244 190.172C846.21 190.172 847.035 190.404 847.719 190.869C848.402 191.334 848.958 191.958 849.387 192.742C849.815 193.517 850.13 194.378 850.33 195.326C850.531 196.274 850.631 197.227 850.631 198.184C850.631 200.973 849.838 203.238 848.252 204.979C846.666 206.719 844.365 207.868 841.348 208.424L840.117 205.279C841.922 204.951 843.412 204.404 844.588 203.639C845.764 202.873 846.552 201.939 846.953 200.836ZM847.227 197.309C847.108 195.96 846.862 195.021 846.488 194.492C846.115 193.954 845.663 193.686 845.135 193.686C844.743 193.686 844.428 193.831 844.191 194.123C843.964 194.415 843.795 194.77 843.686 195.189C843.585 195.6 843.535 195.982 843.535 196.338C843.535 196.757 843.663 197.058 843.918 197.24C844.173 197.413 844.729 197.5 845.586 197.5C846.151 197.5 846.698 197.436 847.227 197.309ZM858.561 192.564C858.989 193.549 859.322 194.588 859.559 195.682C859.805 196.766 859.928 197.842 859.928 198.908C859.928 200.403 859.627 201.798 859.025 203.092C858.433 204.386 857.521 205.503 856.291 206.441C855.061 207.38 853.488 208.064 851.574 208.492L850.084 205.471C852.299 204.924 853.93 204.117 854.979 203.051C856.036 201.993 856.564 200.686 856.564 199.127C856.564 198.307 856.446 197.418 856.209 196.461C855.981 195.504 855.685 194.592 855.32 193.727L858.561 192.564ZM863.537 187.984L865.916 185.619L868.295 187.984L865.916 190.363L863.537 187.984ZM867.857 192.564C868.286 193.549 868.618 194.588 868.855 195.682C869.102 196.766 869.225 197.842 869.225 198.908C869.225 200.403 868.924 201.798 868.322 203.092C867.73 204.386 866.818 205.503 865.588 206.441C864.357 207.38 862.785 208.064 860.871 208.492L859.381 205.471C861.596 204.924 863.227 204.117 864.275 203.051C865.333 201.993 865.861 200.686 865.861 199.127C865.861 198.307 865.743 197.418 865.506 196.461C865.278 195.504 864.982 194.592 864.617 193.727L867.857 192.564ZM885.016 201H884.674C882.878 201 881.484 200.512 880.49 199.537C879.506 198.553 879.014 197.012 879.014 194.916V182.051H882.418V194.93C882.418 195.96 882.596 196.639 882.951 196.967C883.316 197.286 883.89 197.445 884.674 197.445H885.016V201ZM892.057 194.766C892.057 196.707 891.546 198.234 890.525 199.346C889.514 200.449 888.042 201 886.109 201H884.469V197.445H886.109C887.048 197.445 887.7 197.263 888.064 196.898C888.438 196.525 888.625 195.827 888.625 194.807C888.625 194.223 888.561 193.526 888.434 192.715C888.306 191.895 888.165 191.161 888.01 190.514L891.277 189.721C891.514 190.495 891.701 191.339 891.838 192.25C891.984 193.152 892.057 193.991 892.057 194.766ZM885.18 205.143L887.559 202.777L889.938 205.143L887.559 207.521L885.18 205.143ZM921.301 201C920.49 201 919.792 200.85 919.209 200.549C919.072 202.199 918.598 203.584 917.787 204.705C916.976 205.826 915.919 206.674 914.615 207.248C913.312 207.822 911.849 208.109 910.227 208.109C907.41 208.109 905.195 207.38 903.582 205.922C901.969 204.473 901.162 202.395 901.162 199.688C901.162 198.603 901.299 197.5 901.572 196.379C901.855 195.258 902.21 194.169 902.639 193.111L905.756 194.369C905.437 195.235 905.163 196.128 904.936 197.049C904.717 197.969 904.607 198.826 904.607 199.619C904.607 201.324 905.04 202.577 905.906 203.379C906.781 204.181 908.208 204.582 910.186 204.582C912.1 204.582 913.531 204.145 914.479 203.27C915.426 202.395 915.905 201 915.914 199.086C915.914 198.202 915.773 197.299 915.49 196.379C915.217 195.458 914.88 194.574 914.479 193.727L917.883 192.551L918.867 195.586C919.077 196.242 919.368 196.716 919.742 197.008C920.116 197.29 920.645 197.436 921.328 197.445C922.076 197.445 922.59 197.272 922.873 196.926C923.165 196.57 923.311 195.973 923.311 195.135C923.311 195.007 923.301 194.779 923.283 194.451C923.265 194.114 923.242 193.745 923.215 193.344C923.188 192.934 923.16 192.56 923.133 192.223L926.482 191.812L926.742 195.477C926.788 196.115 926.934 196.602 927.18 196.939C927.435 197.277 927.827 197.445 928.355 197.445C928.747 197.445 929.071 197.277 929.326 196.939C929.581 196.593 929.709 195.932 929.709 194.957C929.709 194.474 929.632 193.859 929.477 193.111C929.331 192.355 929.167 191.635 928.984 190.951L932.279 190.117C932.507 190.865 932.708 191.635 932.881 192.428C933.063 193.221 933.154 193.995 933.154 194.752C933.154 195.827 933.004 196.839 932.703 197.787C932.402 198.735 931.901 199.505 931.199 200.098C930.497 200.69 929.554 200.991 928.369 201C926.893 201 925.771 200.467 925.006 199.4C924.021 200.467 922.786 201 921.301 201ZM941.426 201H941.084C939.288 201 937.894 200.512 936.9 199.537C935.916 198.553 935.424 197.012 935.424 194.916V182.051H938.828V194.93C938.828 195.96 939.006 196.639 939.361 196.967C939.726 197.286 940.3 197.445 941.084 197.445H941.426V201ZM945.336 199.25C944.771 199.815 944.169 200.248 943.531 200.549C942.893 200.85 942.21 201 941.48 201H940.893V197.445H941.398C942.027 197.436 942.556 197.149 942.984 196.584C943.422 196.019 943.809 195.358 944.146 194.602C944.766 193.234 945.505 192.195 946.361 191.484C947.218 190.764 948.202 190.404 949.314 190.404C950.354 190.404 951.233 190.632 951.953 191.088C952.673 191.535 953.252 192.132 953.689 192.879C954.127 193.617 954.437 194.419 954.619 195.285C954.792 196.105 955.02 196.671 955.303 196.98C955.594 197.29 955.918 197.445 956.273 197.445H956.643V201H956.26C955.749 201 955.262 200.909 954.797 200.727C954.332 200.544 953.922 200.262 953.566 199.879C953.129 200.389 952.628 200.754 952.062 200.973C951.497 201.191 950.846 201.301 950.107 201.301C949.214 201.301 948.38 201.123 947.605 200.768C946.84 200.412 946.083 199.906 945.336 199.25ZM947.168 196.256C947.66 196.785 948.161 197.181 948.672 197.445C949.191 197.701 949.647 197.828 950.039 197.828C950.923 197.828 951.365 197.372 951.365 196.461C951.365 195.659 951.178 195.044 950.805 194.615C950.431 194.178 949.957 193.959 949.383 193.959C948.991 193.959 948.604 194.173 948.221 194.602C947.847 195.03 947.496 195.581 947.168 196.256ZM963.984 189.707C964.221 190.482 964.408 191.325 964.545 192.236C964.691 193.148 964.764 193.991 964.764 194.766C964.764 196.926 964.203 198.507 963.082 199.51C961.961 200.503 960.311 201 958.133 201H956.096V197.445H958.133C958.999 197.445 959.66 197.391 960.115 197.281C960.58 197.163 960.899 196.917 961.072 196.543C961.245 196.169 961.332 195.59 961.332 194.807C961.332 194.223 961.268 193.526 961.141 192.715C961.013 191.895 960.872 191.161 960.717 190.514L963.984 189.707ZM960.676 185.961L962.904 183.746L965.133 185.975L962.904 188.203L960.676 185.961ZM956.068 185.961L958.297 183.746L960.525 185.961L958.297 188.203L956.068 185.961Z" fill="white"/>
<path d="M1215 227.5C1215 237.165 1207.16 245 1197.5 245C1187.84 245 1180 237.165 1180 227.5C1180 217.835 1187.84 210 1197.5 210C1207.16 210 1215 217.835 1215 227.5ZM1184.22 227.5C1184.22 234.833 1190.17 240.777 1197.5 240.777C1204.83 240.777 1210.78 234.833 1210.78 227.5C1210.78 220.167 1204.83 214.223 1197.5 214.223C1190.17 214.223 1184.22 220.167 1184.22 227.5Z" fill="white" fill-opacity="0.6"/>
<path d="M454 146.5C454 156.165 446.165 164 436.5 164C426.835 164 419 156.165 419 146.5C419 136.835 426.835 129 436.5 129C446.165 129 454 136.835 454 146.5ZM423.223 146.5C423.223 153.833 429.167 159.777 436.5 159.777C443.833 159.777 449.777 153.833 449.777 146.5C449.777 139.167 443.833 133.223 436.5 133.223C429.167 133.223 423.223 139.167 423.223 146.5Z" fill="white" fill-opacity="0.6"/>
<path d="M209.354 75.1716C215.774 92.6972 218.205 111.639 216.443 130.396C214.68 149.153 208.775 167.176 199.227 182.942C189.678 198.707 176.767 211.753 161.582 220.978C146.398 230.202 129.387 235.334 111.986 235.939C94.5849 236.545 77.3047 232.607 61.6047 224.458C45.9048 216.309 32.2462 204.188 21.7825 189.119C11.3188 174.05 4.35727 156.475 1.48585 137.879C-1.38558 119.283 -0.0825698 100.212 5.28482 82.2758L30.1915 91.017C26.1193 104.625 25.1307 119.094 27.3092 133.203C29.4878 147.311 34.7694 160.645 42.7081 172.078C50.6469 183.511 61.0095 192.707 72.9209 198.89C84.8324 205.072 97.9427 208.06 111.145 207.6C124.347 207.141 137.253 203.247 148.773 196.249C160.293 189.251 170.089 179.353 177.334 167.391C184.578 155.43 189.058 141.756 190.395 127.525C191.732 113.294 189.888 98.9236 185.017 85.6271L209.354 75.1716Z" fill="#FAFAFA" fill-opacity="0.4"/>
<path d="M648 306C648 278.152 636.2 251.445 615.196 231.754C594.192 212.062 565.704 201 536 201C506.296 201 477.808 212.062 456.804 231.754C435.8 251.445 424 278.152 424 306H451.027C451.027 284.872 459.979 264.61 475.915 249.67C491.85 234.73 513.464 226.337 536 226.337C558.536 226.337 580.15 234.73 596.085 249.67C612.021 264.61 620.973 284.872 620.973 306H648Z" fill="#FAFAFA" fill-opacity="0.4"/>
<path d="M1024 85.5C1024 108.176 1035.8 129.923 1056.8 145.958C1077.81 161.992 1106.3 171 1136 171C1165.7 171 1194.19 161.992 1215.2 145.958C1236.2 129.923 1248 108.176 1248 85.5L1220.97 85.5C1220.97 102.704 1212.02 119.204 1196.09 131.369C1180.15 143.534 1158.54 150.368 1136 150.368C1113.46 150.368 1091.85 143.534 1075.91 131.369C1059.98 119.204 1051.03 102.704 1051.03 85.5H1024Z" fill="#FAFAFA" fill-opacity="0.4"/>
<path d="M1716 298.5C1716 281.17 1712.35 264.054 1705.3 248.38C1698.25 232.706 1687.99 218.86 1675.24 207.837C1662.5 196.813 1647.59 188.884 1631.57 184.617C1615.56 180.35 1598.85 179.852 1582.64 183.157C1566.42 186.463 1551.1 193.491 1537.78 203.737C1524.46 213.983 1513.46 227.194 1505.58 242.423C1497.69 257.652 1493.12 274.523 1492.18 291.825C1491.24 309.127 1493.96 326.432 1500.15 342.501L1525.21 331.884C1520.52 319.692 1518.45 306.562 1519.16 293.435C1519.88 280.309 1523.35 267.509 1529.33 255.955C1535.31 244.401 1543.65 234.378 1553.76 226.604C1563.87 218.83 1575.49 213.498 1587.79 210.99C1600.09 208.483 1612.77 208.861 1624.92 212.098C1637.07 215.335 1648.38 221.351 1658.05 229.714C1667.72 238.078 1675.51 248.582 1680.86 260.474C1686.2 272.366 1688.97 285.352 1688.97 298.5H1716Z" fill="#FAFAFA" fill-opacity="0.4"/>
<rect width="3.81327" height="21.1944" rx="1.90664" transform="matrix(0.867569 -0.497317 0.502688 0.864468 725.038 150.896)" fill="white"/>
<rect width="3.8027" height="34.9414" rx="1.90135" transform="matrix(0.604563 -0.796557 0.8007 0.599065 700 157.857)" fill="white"/>
<rect width="3.79348" height="21.2139" rx="1.89674" transform="matrix(0.157531 -0.987514 0.98786 0.155345 702.003 184.704)" fill="white"/>
<path d="M977 232.85C986 234.35 1005.79 232.139 1009.07 218.99C1010.03 215.166 1004.93 213.703 1001.66 216.328C997.117 219.978 997.304 225.174 997.161 230.902C997.099 233.365 1000.11 234.927 1003 235.35C1005.27 235.682 1010.11 234.424 1012.16 233.151C1015.81 230.883 1018.13 229.178 1021.16 226.151C1022.57 224.741 1023.31 222.629 1023.31 220.651C1023.31 218.648 1021.81 215.574 1018.83 218.255C1016.88 220.01 1016.17 222.491 1016.21 225.035C1016.27 229.137 1019.78 230.061 1023.31 230.902C1032.06 232.984 1039.99 233.777 1049 233.151C1050.03 233.079 1055 231.897 1055.5 230.902" stroke="#FAFAFA" stroke-width="3" stroke-linecap="round"/>
</svg>
