<svg width="21" height="21" viewBox="0 0 21 21" fill="none" xmlns="http://www.w3.org/2000/svg">
<path d="M6.335 1.75H4.6725C2.75625 1.75 1.75 2.75625 1.75 4.66375V6.32625C1.75 8.23375 2.75625 9.24 4.66375 9.24H6.32625C8.23375 9.24 9.24 8.23375 9.24 6.32625V4.66375C9.24875 2.75625 8.2425 1.75 6.335 1.75Z" fill="#262630"/>
<path opacity="0.5" d="M16.3362 1.75H14.6737C12.7662 1.75 11.76 2.75625 11.76 4.66375V6.32625C11.76 8.23375 12.7662 9.24 14.6737 9.24H16.3362C18.2437 9.24 19.25 8.23375 19.25 6.32625V4.66375C19.25 2.75625 18.2437 1.75 16.3362 1.75Z" fill="#262630"/>
<path d="M16.3362 11.7512H14.6737C12.7662 11.7512 11.76 12.7575 11.76 14.665V16.3275C11.76 18.235 12.7662 19.2412 14.6737 19.2412H16.3362C18.2437 19.2412 19.25 18.235 19.25 16.3275V14.665C19.25 12.7575 18.2437 11.7512 16.3362 11.7512Z" fill="#262630"/>
<path opacity="0.5" d="M6.335 11.7512H4.6725C2.75625 11.7512 1.75 12.7575 1.75 14.665V16.3275C1.75 18.2437 2.75625 19.25 4.66375 19.25H6.32625C8.23375 19.25 9.24 18.2437 9.24 16.3362V14.6737C9.24875 12.7575 8.2425 11.7512 6.335 11.7512Z" fill="#262630"/>
</svg>
