<svg width="25" height="25" viewBox="0 0 25 25" fill="none" xmlns="http://www.w3.org/2000/svg">
<path opacity="0.4" d="M5.97916 16.6667C6.09375 16.1563 5.88541 15.4271 5.52083 15.0625L2.98958 12.5313C2.19791 11.7396 1.88541 10.8959 2.11458 10.1667C2.35416 9.43754 3.09375 8.93754 4.19791 8.75004L7.44791 8.20837C7.91666 8.12504 8.48958 7.70837 8.70833 7.28129L10.5 3.68754C11.0208 2.65629 11.7292 2.08337 12.5 2.08337C13.2708 2.08337 13.9792 2.65629 14.5 3.68754L16.2917 7.28129C16.4271 7.55212 16.7083 7.81254 17.0104 7.98962L5.79166 19.2084C5.64583 19.3542 5.39583 19.2188 5.4375 19.0105L5.97916 16.6667Z" fill="white"/>
<path d="M19.4792 15.0625C19.1042 15.4375 18.8959 16.1562 19.0209 16.6666L19.7397 19.8021C20.0417 21.1041 19.8542 22.0833 19.2084 22.5521C18.948 22.7396 18.6355 22.8333 18.2709 22.8333C17.7397 22.8333 17.1147 22.6354 16.4272 22.2291L13.3751 20.4166C12.8959 20.1354 12.1042 20.1354 11.6251 20.4166L8.573 22.2291C7.41675 22.9062 6.42716 23.0208 5.79175 22.5521C5.55216 22.375 5.37508 22.1354 5.2605 21.8229L17.9272 9.15622C18.4063 8.67706 19.0834 8.45831 19.7397 8.57289L20.7917 8.74997C21.8959 8.93747 22.6355 9.43747 22.8751 10.1666C23.1042 10.8958 22.7917 11.7396 22.0001 12.5312L19.4792 15.0625Z" fill="white"/>
</svg>
