<svg width="43" height="43" viewBox="0 0 43 43" fill="none" xmlns="http://www.w3.org/2000/svg">
<path opacity="0.5" d="M19.2604 4.38949C20.4967 3.33241 22.5212 3.33241 23.7754 4.38949L26.6062 6.82616C27.1437 7.29199 28.1471 7.66824 28.8637 7.66824H31.9096C33.8087 7.66824 35.3675 9.22699 35.3675 11.1262V14.172C35.3675 14.8707 35.7437 15.892 36.2096 16.4295L38.6462 19.2603C39.7033 20.4966 39.7033 22.5212 38.6462 23.7753L36.2096 26.6062C35.7437 27.1437 35.3675 28.147 35.3675 28.8637V31.9095C35.3675 33.8087 33.8087 35.3674 31.9096 35.3674H28.8637C28.165 35.3674 27.1437 35.7437 26.6062 36.2095L23.7754 38.6462C22.5392 39.7032 20.5146 39.7032 19.2604 38.6462L16.4296 36.2095C15.8921 35.7437 14.8887 35.3674 14.1721 35.3674H11.0725C9.17333 35.3674 7.61458 33.8087 7.61458 31.9095V28.8457C7.61458 28.147 7.23833 27.1437 6.79041 26.6062L4.37166 23.7574C3.33249 22.5212 3.33249 20.5145 4.37166 19.2782L6.79041 16.4295C7.23833 15.892 7.61458 14.8887 7.61458 14.1899V11.1082C7.61458 9.20907 9.17333 7.65033 11.0725 7.65033H14.1721C14.8708 7.65033 15.8921 7.27408 16.4296 6.80824L19.2604 4.38949Z" fill="white"/>
<path d="M19.3321 27.1795C18.9738 27.1795 18.6333 27.0362 18.3825 26.7854L14.0467 22.4495C13.5271 21.93 13.5271 21.07 14.0467 20.5504C14.5663 20.0308 15.4263 20.0308 15.9458 20.5504L19.3321 23.9366L27.0363 16.2325C27.5558 15.7129 28.4158 15.7129 28.9354 16.2325C29.455 16.752 29.455 17.612 28.9354 18.1316L20.2817 26.7854C20.0308 27.0362 19.6904 27.1795 19.3321 27.1795Z" fill="white"/>
</svg>
